<svg width="43" height="43" viewBox="0 0 43 43" fill="none" xmlns="http://www.w3.org/2000/svg">
<path d="M10.0979 20.081L21.5 31.4832L32.9022 20.081C33.9103 19.0729 34.4766 17.7057 34.4766 16.28C34.4766 14.8543 33.9103 13.4871 32.9022 12.479C32.403 11.9798 31.8104 11.5839 31.1583 11.3137C30.5061 11.0436 29.8071 10.9045 29.1012 10.9045C27.6755 10.9045 26.3082 11.4709 25.3002 12.479L21.5 16.2791L17.6999 12.4808C16.6892 11.4862 15.3265 10.9313 13.9086 10.9369C12.4906 10.9425 11.1323 11.5082 10.1296 12.5107C9.12681 13.5132 8.56082 14.8714 8.55487 16.2893C8.54893 17.7073 9.10353 19.0701 10.0979 20.081ZM20.2333 9.94377L21.5 11.2105L22.7667 9.94377C23.5973 9.10593 24.5851 8.44038 25.6735 7.98535C26.762 7.53031 27.9296 7.29473 29.1093 7.29215C30.289 7.28957 31.4576 7.52002 32.5481 7.97029C33.6385 8.42056 34.6292 9.08177 35.4634 9.91596C36.2976 10.7502 36.9588 11.7409 37.4091 12.8313C37.8594 13.9217 38.0898 15.0904 38.0872 16.2701C38.0846 17.4498 37.8491 18.6174 37.394 19.7058C36.939 20.7943 36.2734 21.7821 35.4356 22.6126L22.7685 35.2815C22.6021 35.4481 22.4045 35.5802 22.187 35.6704C21.9695 35.7606 21.7364 35.807 21.5009 35.807C21.2655 35.807 21.0323 35.7606 20.8148 35.6704C20.5973 35.5802 20.3997 35.4481 20.2333 35.2815L7.56445 22.6144C6.71521 21.7866 6.03882 20.7983 5.57449 19.707C5.11017 18.6157 4.86716 17.4431 4.85956 16.2571C4.85196 15.0712 5.07992 13.8955 5.53023 12.7983C5.98053 11.7012 6.64421 10.7043 7.48276 9.86568C8.32132 9.027 9.31805 8.36319 10.4152 7.91273C11.5123 7.46227 12.6879 7.23414 13.8738 7.24157C15.0598 7.249 16.2325 7.49184 17.3238 7.95602C18.4152 8.42019 19.4035 9.09644 20.2315 9.94556L20.2333 9.94377Z" fill="#B0CA87"/>
</svg>
