<svg width="354" height="75" viewBox="0 0 354 75" fill="none" xmlns="http://www.w3.org/2000/svg">
<path d="M50.56 37.52C50.56 43.0133 49.0133 46.84 45.92 49C43.0667 51 39.1467 52 34.16 52H22.84V51.24H25.48V24.76H22.84V24H35.2C40.32 24 44.16 25.0533 46.72 27.16C49.28 29.24 50.56 32.6933 50.56 37.52ZM33.28 51.24H34.8C37.4933 51.24 39.4133 50.2933 40.56 48.4C41.7333 46.48 42.32 43.28 42.32 38.8V36.48C42.32 30.48 41.1733 26.8667 38.88 25.64C37.7867 25.0533 36.24 24.76 34.24 24.76H33.28V51.24ZM63.1153 52.4C59.6753 52.4 57.0886 51.52 55.3553 49.76C53.6486 47.9733 52.7953 45.5067 52.7953 42.36C52.7953 39.1867 53.7553 36.76 55.6753 35.08C57.622 33.4 60.0886 32.56 63.0753 32.56C69.1286 32.56 72.0353 35.6 71.7953 41.68H60.5153V43.24C60.5153 45.8533 60.8486 47.8267 61.5153 49.16C62.182 50.4933 63.342 51.16 64.9953 51.16C68.0886 51.16 70.1153 49.5067 71.0753 46.2L71.7953 46.32C71.2886 48.24 70.3686 49.7333 69.0353 50.8C67.7286 51.8667 65.7553 52.4 63.1153 52.4ZM60.5553 40.88H64.6753V38.92C64.6753 36.76 64.542 35.2933 64.2753 34.52C64.0353 33.72 63.5286 33.32 62.7553 33.32C62.0086 33.32 61.4486 33.7467 61.0753 34.6C60.7286 35.4267 60.5553 36.8667 60.5553 38.92V40.88ZM71.8047 33.68V32.96H83.7647V33.68H81.2447L86.0447 46.96L90.3647 33.68H87.6847V32.96H93.0847V33.68H91.3247L85.4047 52H80.8447L73.4447 33.68H71.8047ZM109.094 24.36C104.96 24.36 102.894 28.3467 102.894 36.32V39.48C102.894 43.2667 103.44 46.24 104.534 48.4C105.627 50.5333 107.24 51.6 109.374 51.6C112.307 51.6 115 48.7467 117.454 43.04H118.174L117.894 51.96H117.454C117.294 51.6667 117.147 51.4667 117.014 51.36C116.88 51.2267 116.68 51.16 116.414 51.16C116.174 51.16 115.214 51.3733 113.534 51.8C111.854 52.2 110.147 52.4 108.414 52.4C104.067 52.4 100.694 51.2267 98.2938 48.88C95.9204 46.5333 94.7338 43.0133 94.7338 38.32C94.7338 33.6 95.9738 29.96 98.4538 27.4C100.96 24.84 104.32 23.56 108.534 23.56C110.16 23.56 111.747 23.7733 113.294 24.2C114.867 24.6 115.787 24.8 116.054 24.8C116.32 24.8 116.52 24.7467 116.654 24.64C116.787 24.5067 116.934 24.2933 117.094 24H117.534L117.854 32.68H117.134C115.934 29.9867 114.694 27.9333 113.414 26.52C112.16 25.08 110.72 24.36 109.094 24.36ZM133.64 44.12V40.72C133.64 38.1333 133.494 36.2533 133.2 35.08C132.934 33.88 132.294 33.28 131.28 33.28C130.694 33.28 130.214 33.4533 129.84 33.8C129.494 34.12 129.24 34.6667 129.08 35.44C128.84 36.64 128.72 38.4667 128.72 40.92V44.04C128.72 46.9467 128.8 48.6933 128.96 49.28C129.147 49.8667 129.334 50.3467 129.52 50.72C129.814 51.36 130.387 51.68 131.24 51.68C132.28 51.68 132.96 51.08 133.28 49.88C133.52 49.0267 133.64 47.1067 133.64 44.12ZM131.16 52.4C127.827 52.4 125.307 51.5467 123.6 49.84C121.894 48.1333 121.04 45.6933 121.04 42.52C121.04 39.32 121.947 36.8667 123.76 35.16C125.6 33.4267 128.174 32.56 131.48 32.56C134.787 32.56 137.254 33.36 138.88 34.96C140.507 36.5333 141.32 38.9467 141.32 42.2C141.32 49 137.934 52.4 131.16 52.4ZM142.519 32.96H152.159V36.64C152.586 35.4133 153.239 34.4267 154.119 33.68C154.999 32.9333 156.332 32.56 158.119 32.56C162.252 32.56 164.319 34.7867 164.319 39.24V51.28H166.559V52H155.239V51.28H156.879V38.28C156.879 36.68 156.772 35.6533 156.559 35.2C156.346 34.72 155.959 34.48 155.399 34.48C154.546 34.48 153.786 35.04 153.119 36.16C152.479 37.28 152.159 38.64 152.159 40.24V51.28H153.879V52H142.519V51.28H144.719V33.68H142.519V32.96ZM167.168 32.96H176.808V36.64C177.234 35.4133 177.888 34.4267 178.768 33.68C179.648 32.9333 180.981 32.56 182.768 32.56C186.901 32.56 188.968 34.7867 188.968 39.24V51.28H191.208V52H179.888V51.28H181.528V38.28C181.528 36.68 181.421 35.6533 181.208 35.2C180.994 34.72 180.608 34.48 180.048 34.48C179.194 34.48 178.434 35.04 177.768 36.16C177.128 37.28 176.808 38.64 176.808 40.24V51.28H178.528V52H167.168V51.28H169.368V33.68H167.168V32.96ZM202.256 52.4C198.816 52.4 196.229 51.52 194.496 49.76C192.789 47.9733 191.936 45.5067 191.936 42.36C191.936 39.1867 192.896 36.76 194.816 35.08C196.763 33.4 199.229 32.56 202.216 32.56C208.269 32.56 211.176 35.6 210.936 41.68H199.656V43.24C199.656 45.8533 199.989 47.8267 200.656 49.16C201.323 50.4933 202.483 51.16 204.136 51.16C207.229 51.16 209.256 49.5067 210.216 46.2L210.936 46.32C210.429 48.24 209.509 49.7333 208.176 50.8C206.869 51.8667 204.896 52.4 202.256 52.4ZM199.696 40.88H203.816V38.92C203.816 36.76 203.683 35.2933 203.416 34.52C203.176 33.72 202.669 33.32 201.896 33.32C201.149 33.32 200.589 33.7467 200.216 34.6C199.869 35.4267 199.696 36.8667 199.696 38.92V40.88ZM223.561 33.28C222.388 33.28 221.548 33.92 221.041 35.2C220.534 36.48 220.281 38.6 220.281 41.56V43.64C220.281 46.28 220.574 48.1733 221.161 49.32C221.748 50.4667 222.828 51.04 224.401 51.04C225.974 51.04 227.228 50.5067 228.161 49.44C229.094 48.3733 229.694 47.16 229.961 45.8L230.681 45.88C230.174 48.1733 229.241 49.8267 227.881 50.84C226.494 51.88 224.588 52.4 222.161 52.4C219.068 52.4 216.694 51.5733 215.041 49.92C213.388 48.24 212.561 45.8 212.561 42.6C212.561 39.3733 213.494 36.8933 215.361 35.16C217.254 33.4267 219.881 32.56 223.241 32.56C225.614 32.56 227.428 33.0267 228.681 33.96C229.934 34.8667 230.561 36.0133 230.561 37.4C230.561 38.7867 230.254 39.8 229.641 40.44C229.054 41.08 228.228 41.4 227.161 41.4C226.121 41.4 225.281 41.12 224.641 40.56C224.001 40 223.681 39.1733 223.681 38.08C223.681 37.6 223.748 37.12 223.881 36.64H225.201C225.388 36.1067 225.481 35.6267 225.481 35.2C225.481 33.92 224.841 33.28 223.561 33.28ZM233.697 46.28V33.68H231.497V32.96H233.697V27.8L241.137 25.96V32.96H246.337V33.68H241.137V47.16C241.137 48.4133 241.257 49.3333 241.497 49.92C241.764 50.5067 242.297 50.8 243.097 50.8C243.897 50.8 244.59 50.4 245.177 49.6C245.79 48.8 246.19 47.7067 246.377 46.32L247.057 46.4C246.844 48.24 246.257 49.7067 245.297 50.8C244.337 51.8667 242.75 52.4 240.537 52.4C238.324 52.4 236.63 51.96 235.457 51.08C234.284 50.2 233.697 48.6 233.697 46.28Z" fill="#366006"/>
</svg>
