<svg width="109" height="22" viewBox="0 0 109 22" fill="none" xmlns="http://www.w3.org/2000/svg">
<path d="M21.42 10.8067C21.42 14.9267 20.26 17.7967 17.94 19.4167C15.8 20.9167 12.86 21.6667 9.12 21.6667H0.63V21.0967H2.61V1.23669H0.63V0.666686H9.9C13.74 0.666686 16.62 1.45669 18.54 3.03669C20.46 4.59669 21.42 7.18669 21.42 10.8067ZM8.46 21.0967H9.6C11.62 21.0967 13.06 20.3867 13.92 18.9667C14.8 17.5267 15.24 15.1267 15.24 11.7667V10.0267C15.24 5.52669 14.38 2.81669 12.66 1.89669C11.84 1.45669 10.68 1.23669 9.18 1.23669H8.46V21.0967ZM30.8365 21.9667C28.2565 21.9667 26.3165 21.3067 25.0165 19.9867C23.7365 18.6467 23.0965 16.7967 23.0965 14.4367C23.0965 12.0567 23.8165 10.2367 25.2565 8.97669C26.7165 7.71669 28.5665 7.08669 30.8065 7.08669C35.3465 7.08669 37.5265 9.36669 37.3465 13.9267H28.8865V15.0967C28.8865 17.0567 29.1365 18.5367 29.6365 19.5367C30.1365 20.5367 31.0065 21.0367 32.2465 21.0367C34.5665 21.0367 36.0865 19.7967 36.8065 17.3167L37.3465 17.4067C36.9665 18.8467 36.2765 19.9667 35.2765 20.7667C34.2965 21.5667 32.8165 21.9667 30.8365 21.9667ZM28.9165 13.3267H32.0065V11.8567C32.0065 10.2367 31.9065 9.13669 31.7065 8.55669C31.5265 7.95669 31.1465 7.65669 30.5665 7.65669C30.0065 7.65669 29.5865 7.97669 29.3065 8.61669C29.0465 9.23669 28.9165 10.3167 28.9165 11.8567V13.3267ZM37.3535 7.92669V7.38669H46.3235V7.92669H44.4335L48.0335 17.8867L51.2735 7.92669H49.2635V7.38669H53.3135V7.92669H51.9935L47.5535 21.6667H44.1335L38.5835 7.92669H37.3535ZM65.3203 0.936686C62.2203 0.936686 60.6703 3.92669 60.6703 9.90669V12.2767C60.6703 15.1167 61.0803 17.3467 61.9003 18.9667C62.7203 20.5667 63.9303 21.3667 65.5303 21.3667C67.7303 21.3667 69.7503 19.2267 71.5903 14.9467H72.1303L71.9203 21.6367H71.5903C71.4703 21.4167 71.3603 21.2667 71.2603 21.1867C71.1603 21.0867 71.0103 21.0367 70.8103 21.0367C70.6303 21.0367 69.9103 21.1967 68.6503 21.5167C67.3903 21.8167 66.1103 21.9667 64.8103 21.9667C61.5503 21.9667 59.0203 21.0867 57.2203 19.3267C55.4403 17.5667 54.5503 14.9267 54.5503 11.4067C54.5503 7.86669 55.4803 5.13669 57.3403 3.21669C59.2203 1.29669 61.7403 0.336686 64.9003 0.336686C66.1203 0.336686 67.3103 0.496686 68.4703 0.816685C69.6503 1.11669 70.3403 1.26669 70.5403 1.26669C70.7403 1.26669 70.8903 1.22669 70.9903 1.14669C71.0903 1.04669 71.2003 0.886686 71.3203 0.666686H71.6503L71.8903 7.17669H71.3503C70.4503 5.15669 69.5203 3.61669 68.5603 2.55669C67.6203 1.47669 66.5403 0.936686 65.3203 0.936686ZM83.7302 15.7567V13.2067C83.7302 11.2667 83.6202 9.85669 83.4002 8.97669C83.2002 8.07669 82.7202 7.62669 81.9602 7.62669C81.5202 7.62669 81.1602 7.75669 80.8802 8.01669C80.6202 8.25669 80.4302 8.66669 80.3102 9.24669C80.1302 10.1467 80.0402 11.5167 80.0402 13.3567V15.6967C80.0402 17.8767 80.1002 19.1867 80.2202 19.6267C80.3602 20.0667 80.5002 20.4267 80.6402 20.7067C80.8602 21.1867 81.2902 21.4267 81.9302 21.4267C82.7102 21.4267 83.2202 20.9767 83.4602 20.0767C83.6402 19.4367 83.7302 17.9967 83.7302 15.7567ZM81.8702 21.9667C79.3702 21.9667 77.4802 21.3267 76.2002 20.0467C74.9202 18.7667 74.2802 16.9367 74.2802 14.5567C74.2802 12.1567 74.9602 10.3167 76.3202 9.03669C77.7002 7.73669 79.6302 7.08669 82.1102 7.08669C84.5902 7.08669 86.4402 7.68669 87.6602 8.88669C88.8802 10.0667 89.4902 11.8767 89.4902 14.3167C89.4902 19.4167 86.9502 21.9667 81.8702 21.9667ZM90.3893 7.38669H97.6193V10.1467C97.9393 9.22669 98.4293 8.48669 99.0893 7.92669C99.7493 7.36669 100.749 7.08669 102.089 7.08669C105.189 7.08669 106.739 8.75669 106.739 12.0967V21.1267H108.419V21.6667H99.9293V21.1267H101.159V11.3767C101.159 10.1767 101.079 9.40669 100.919 9.06669C100.759 8.70669 100.469 8.52669 100.049 8.52669C99.4093 8.52669 98.8393 8.94669 98.3393 9.78669C97.8593 10.6267 97.6193 11.6467 97.6193 12.8467V21.1267H98.9093V21.6667H90.3893V21.1267H92.0393V7.92669H90.3893V7.38669Z" fill="#366006"/>
</svg>
