<svg width="343" height="45" viewBox="0 0 343 45" fill="none" xmlns="http://www.w3.org/2000/svg">
<path d="M42.554 21.918C42.554 30.2953 40.1953 36.131 35.478 39.425C31.1267 42.475 25.1487 44 17.544 44H0.281V42.841H4.307V2.459H0.281V1.3H19.13C26.938 1.3 32.794 2.90633 36.698 6.119C40.602 9.291 42.554 14.5573 42.554 21.918ZM16.202 42.841H18.52C22.6273 42.841 25.5553 41.3973 27.304 38.51C29.0933 35.582 29.988 30.702 29.988 23.87V20.332C29.988 11.182 28.2393 5.67166 24.742 3.801C23.0747 2.90633 20.716 2.459 17.666 2.459H16.202V42.841ZM61.7009 44.61C56.4549 44.61 52.5102 43.268 49.8669 40.584C47.2642 37.8593 45.9629 34.0977 45.9629 29.299C45.9629 24.4597 47.4269 20.759 50.3549 18.197C53.3235 15.635 57.0852 14.354 61.6399 14.354C70.8712 14.354 75.3039 18.99 74.9379 28.262H57.7359V30.641C57.7359 34.6263 58.2442 37.6357 59.2609 39.669C60.2775 41.7023 62.0465 42.719 64.5679 42.719C69.2852 42.719 72.3759 40.1977 73.8399 35.155L74.9379 35.338C74.1652 38.266 72.7622 40.5433 70.7289 42.17C68.7362 43.7967 65.7269 44.61 61.7009 44.61ZM57.7969 27.042H64.0799V24.053C64.0799 20.759 63.8765 18.5223 63.4699 17.343C63.1039 16.123 62.3312 15.513 61.1519 15.513C60.0132 15.513 59.1592 16.1637 58.5899 17.465C58.0612 18.7257 57.7969 20.9217 57.7969 24.053V27.042ZM74.9521 16.062V14.964H93.1911V16.062H89.3481L96.6681 36.314L103.256 16.062H99.1691V14.964H107.404V16.062H104.72L95.6921 44H88.7381L77.4531 16.062H74.9521ZM131.818 1.849C125.515 1.849 122.363 7.92866 122.363 20.088V24.907C122.363 30.6817 123.197 35.216 124.864 38.51C126.531 41.7633 128.992 43.39 132.245 43.39C136.718 43.39 140.826 39.0387 144.567 30.336H145.665L145.238 43.939H144.567C144.323 43.4917 144.099 43.1867 143.896 43.024C143.693 42.8207 143.388 42.719 142.981 42.719C142.615 42.719 141.151 43.0443 138.589 43.695C136.027 44.305 133.424 44.61 130.781 44.61C124.152 44.61 119.008 42.8207 115.348 39.242C111.729 35.6633 109.919 30.2953 109.919 23.138C109.919 15.94 111.81 10.389 115.592 6.485C119.415 2.581 124.539 0.628998 130.964 0.628998C133.445 0.628998 135.864 0.954331 138.223 1.605C140.622 2.215 142.025 2.52 142.432 2.52C142.839 2.52 143.144 2.43867 143.347 2.276C143.55 2.07267 143.774 1.74733 144.018 1.3H144.689L145.177 14.537H144.079C142.249 10.4297 140.358 7.29833 138.406 5.143C136.495 2.947 134.299 1.849 131.818 1.849ZM169.251 31.983V26.798C169.251 22.8533 169.028 19.9863 168.58 18.197C168.174 16.367 167.198 15.452 165.652 15.452C164.758 15.452 164.026 15.7163 163.456 16.245C162.928 16.733 162.541 17.5667 162.297 18.746C161.931 20.576 161.748 23.3617 161.748 27.103V31.861C161.748 36.2937 161.87 38.9573 162.114 39.852C162.399 40.7467 162.684 41.4787 162.968 42.048C163.416 43.024 164.29 43.512 165.591 43.512C167.177 43.512 168.214 42.597 168.702 40.767C169.068 39.4657 169.251 36.5377 169.251 31.983ZM165.469 44.61C160.386 44.61 156.543 43.3087 153.94 40.706C151.338 38.1033 150.036 34.3823 150.036 29.543C150.036 24.663 151.419 20.9217 154.184 18.319C156.99 15.6757 160.915 14.354 165.957 14.354C171 14.354 174.762 15.574 177.242 18.014C179.723 20.4133 180.963 24.0937 180.963 29.055C180.963 39.425 175.799 44.61 165.469 44.61ZM182.792 14.964H197.493V20.576C198.143 18.7053 199.14 17.2007 200.482 16.062C201.824 14.9233 203.857 14.354 206.582 14.354C212.885 14.354 216.037 17.7497 216.037 24.541V42.902H219.453V44H202.19V42.902H204.691V23.077C204.691 20.637 204.528 19.0713 204.203 18.38C203.877 17.648 203.288 17.282 202.434 17.282C201.132 17.282 199.973 18.136 198.957 19.844C197.981 21.552 197.493 23.626 197.493 26.066V42.902H200.116V44H182.792V42.902H186.147V16.062H182.792V14.964ZM220.38 14.964H235.081V20.576C235.732 18.7053 236.728 17.2007 238.07 16.062C239.412 14.9233 241.446 14.354 244.17 14.354C250.474 14.354 253.625 17.7497 253.625 24.541V42.902H257.041V44H239.778V42.902H242.279V23.077C242.279 20.637 242.117 19.0713 241.791 18.38C241.466 17.648 240.876 17.282 240.022 17.282C238.721 17.282 237.562 18.136 236.545 19.844C235.569 21.552 235.081 23.626 235.081 26.066V42.902H237.704V44H220.38V42.902H223.735V16.062H220.38V14.964ZM273.89 44.61C268.644 44.61 264.7 43.268 262.056 40.584C259.454 37.8593 258.152 34.0977 258.152 29.299C258.152 24.4597 259.616 20.759 262.544 18.197C265.513 15.635 269.275 14.354 273.829 14.354C283.061 14.354 287.493 18.99 287.127 28.262H269.925V30.641C269.925 34.6263 270.434 37.6357 271.45 39.669C272.467 41.7023 274.236 42.719 276.757 42.719C281.475 42.719 284.565 40.1977 286.029 35.155L287.127 35.338C286.355 38.266 284.952 40.5433 282.918 42.17C280.926 43.7967 277.916 44.61 273.89 44.61ZM269.986 27.042H276.269V24.053C276.269 20.759 276.066 18.5223 275.659 17.343C275.293 16.123 274.521 15.513 273.341 15.513C272.203 15.513 271.349 16.1637 270.779 17.465C270.251 18.7257 269.986 20.9217 269.986 24.053V27.042ZM306.38 15.452C304.591 15.452 303.31 16.428 302.537 18.38C301.765 20.332 301.378 23.565 301.378 28.079V31.251C301.378 35.277 301.826 38.1643 302.72 39.913C303.615 41.6617 305.262 42.536 307.661 42.536C310.061 42.536 311.972 41.7227 313.395 40.096C314.819 38.4693 315.734 36.619 316.14 34.545L317.238 34.667C316.466 38.1643 315.042 40.6857 312.968 42.231C310.854 43.817 307.946 44.61 304.245 44.61C299.528 44.61 295.909 43.3493 293.387 40.828C290.866 38.266 289.605 34.545 289.605 29.665C289.605 24.7443 291.029 20.9623 293.875 18.319C296.763 15.6757 300.768 14.354 305.892 14.354C309.512 14.354 312.277 15.0657 314.188 16.489C316.1 17.8717 317.055 19.6203 317.055 21.735C317.055 23.8497 316.588 25.395 315.652 26.371C314.758 27.347 313.497 27.835 311.87 27.835C310.284 27.835 309.003 27.408 308.027 26.554C307.051 25.7 306.563 24.4393 306.563 22.772C306.563 22.04 306.665 21.308 306.868 20.576H308.881C309.166 19.7627 309.308 19.0307 309.308 18.38C309.308 16.428 308.332 15.452 306.38 15.452ZM321.838 35.277V16.062H318.483V14.964H321.838V7.095L333.184 4.289V14.964H341.114V16.062H333.184V36.619C333.184 38.5303 333.367 39.9333 333.733 40.828C334.139 41.7227 334.953 42.17 336.173 42.17C337.393 42.17 338.45 41.56 339.345 40.34C340.28 39.12 340.89 37.4527 341.175 35.338L342.212 35.46C341.886 38.266 340.992 40.5027 339.528 42.17C338.064 43.7967 335.644 44.61 332.269 44.61C328.893 44.61 326.311 43.939 324.522 42.597C322.732 41.255 321.838 38.815 321.838 35.277Z" fill="#366006"/>
</svg>
