<svg width="354" height="59" viewBox="0 0 354 59" fill="none" xmlns="http://www.w3.org/2000/svg">
<path d="M43.554 29.918C43.554 38.2953 41.1953 44.131 36.478 47.425C32.1267 50.475 26.1487 52 18.544 52H1.281V50.841H5.307V10.459H1.281V9.3H20.13C27.938 9.3 33.794 10.9063 37.698 14.119C41.602 17.291 43.554 22.5573 43.554 29.918ZM17.202 50.841H19.52C23.6273 50.841 26.5553 49.3973 28.304 46.51C30.0933 43.582 30.988 38.702 30.988 31.87V28.332C30.988 19.182 29.2393 13.6717 25.742 11.801C24.0747 10.9063 21.716 10.459 18.666 10.459H17.202V50.841ZM62.7009 52.61C57.4549 52.61 53.5102 51.268 50.8669 48.584C48.2642 45.8593 46.9629 42.0977 46.9629 37.299C46.9629 32.4597 48.4269 28.759 51.3549 26.197C54.3235 23.635 58.0852 22.354 62.6399 22.354C71.8712 22.354 76.3039 26.99 75.9379 36.262H58.7359V38.641C58.7359 42.6263 59.2442 45.6357 60.2609 47.669C61.2775 49.7023 63.0465 50.719 65.5679 50.719C70.2852 50.719 73.3759 48.1977 74.8399 43.155L75.9379 43.338C75.1652 46.266 73.7622 48.5433 71.7289 50.17C69.7362 51.7967 66.7269 52.61 62.7009 52.61ZM58.7969 35.042H65.0799V32.053C65.0799 28.759 64.8765 26.5223 64.4699 25.343C64.1039 24.123 63.3312 23.513 62.1519 23.513C61.0132 23.513 60.1592 24.1637 59.5899 25.465C59.0612 26.7257 58.7969 28.9217 58.7969 32.053V35.042ZM75.9521 24.062V22.964H94.1911V24.062H90.3481L97.6681 44.314L104.256 24.062H100.169V22.964H108.404V24.062H105.72L96.6921 52H89.7381L78.4531 24.062H75.9521ZM132.818 9.849C126.515 9.849 123.363 15.9287 123.363 28.088V32.907C123.363 38.6817 124.197 43.216 125.864 46.51C127.531 49.7633 129.992 51.39 133.245 51.39C137.718 51.39 141.826 47.0387 145.567 38.336H146.665L146.238 51.939H145.567C145.323 51.4917 145.099 51.1867 144.896 51.024C144.693 50.8207 144.388 50.719 143.981 50.719C143.615 50.719 142.151 51.0443 139.589 51.695C137.027 52.305 134.424 52.61 131.781 52.61C125.152 52.61 120.008 50.8207 116.348 47.242C112.729 43.6633 110.919 38.2953 110.919 31.138C110.919 23.94 112.81 18.389 116.592 14.485C120.415 10.581 125.539 8.629 131.964 8.629C134.445 8.629 136.864 8.95433 139.223 9.605C141.622 10.215 143.025 10.52 143.432 10.52C143.839 10.52 144.144 10.4387 144.347 10.276C144.55 10.0727 144.774 9.74733 145.018 9.3H145.689L146.177 22.537H145.079C143.249 18.4297 141.358 15.2983 139.406 13.143C137.495 10.947 135.299 9.849 132.818 9.849ZM170.251 39.983V34.798C170.251 30.8533 170.028 27.9863 169.58 26.197C169.174 24.367 168.198 23.452 166.652 23.452C165.758 23.452 165.026 23.7163 164.456 24.245C163.928 24.733 163.541 25.5667 163.297 26.746C162.931 28.576 162.748 31.3617 162.748 35.103V39.861C162.748 44.2937 162.87 46.9573 163.114 47.852C163.399 48.7467 163.684 49.4787 163.968 50.048C164.416 51.024 165.29 51.512 166.591 51.512C168.177 51.512 169.214 50.597 169.702 48.767C170.068 47.4657 170.251 44.5377 170.251 39.983ZM166.469 52.61C161.386 52.61 157.543 51.3087 154.94 48.706C152.338 46.1033 151.036 42.3823 151.036 37.543C151.036 32.663 152.419 28.9217 155.184 26.319C157.99 23.6757 161.915 22.354 166.957 22.354C172 22.354 175.762 23.574 178.242 26.014C180.723 28.4133 181.963 32.0937 181.963 37.055C181.963 47.425 176.799 52.61 166.469 52.61ZM183.792 22.964H198.493V28.576C199.143 26.7053 200.14 25.2007 201.482 24.062C202.824 22.9233 204.857 22.354 207.582 22.354C213.885 22.354 217.037 25.7497 217.037 32.541V50.902H220.453V52H203.19V50.902H205.691V31.077C205.691 28.637 205.528 27.0713 205.203 26.38C204.877 25.648 204.288 25.282 203.434 25.282C202.132 25.282 200.973 26.136 199.957 27.844C198.981 29.552 198.493 31.626 198.493 34.066V50.902H201.116V52H183.792V50.902H187.147V24.062H183.792V22.964ZM221.38 22.964H236.081V28.576C236.732 26.7053 237.728 25.2007 239.07 24.062C240.412 22.9233 242.446 22.354 245.17 22.354C251.474 22.354 254.625 25.7497 254.625 32.541V50.902H258.041V52H240.778V50.902H243.279V31.077C243.279 28.637 243.117 27.0713 242.791 26.38C242.466 25.648 241.876 25.282 241.022 25.282C239.721 25.282 238.562 26.136 237.545 27.844C236.569 29.552 236.081 31.626 236.081 34.066V50.902H238.704V52H221.38V50.902H224.735V24.062H221.38V22.964ZM274.89 52.61C269.644 52.61 265.7 51.268 263.056 48.584C260.454 45.8593 259.152 42.0977 259.152 37.299C259.152 32.4597 260.616 28.759 263.544 26.197C266.513 23.635 270.275 22.354 274.829 22.354C284.061 22.354 288.493 26.99 288.127 36.262H270.925V38.641C270.925 42.6263 271.434 45.6357 272.45 47.669C273.467 49.7023 275.236 50.719 277.757 50.719C282.475 50.719 285.565 48.1977 287.029 43.155L288.127 43.338C287.355 46.266 285.952 48.5433 283.918 50.17C281.926 51.7967 278.916 52.61 274.89 52.61ZM270.986 35.042H277.269V32.053C277.269 28.759 277.066 26.5223 276.659 25.343C276.293 24.123 275.521 23.513 274.341 23.513C273.203 23.513 272.349 24.1637 271.779 25.465C271.251 26.7257 270.986 28.9217 270.986 32.053V35.042ZM307.38 23.452C305.591 23.452 304.31 24.428 303.537 26.38C302.765 28.332 302.378 31.565 302.378 36.079V39.251C302.378 43.277 302.826 46.1643 303.72 47.913C304.615 49.6617 306.262 50.536 308.661 50.536C311.061 50.536 312.972 49.7227 314.395 48.096C315.819 46.4693 316.734 44.619 317.14 42.545L318.238 42.667C317.466 46.1643 316.042 48.6857 313.968 50.231C311.854 51.817 308.946 52.61 305.245 52.61C300.528 52.61 296.909 51.3493 294.387 48.828C291.866 46.266 290.605 42.545 290.605 37.665C290.605 32.7443 292.029 28.9623 294.875 26.319C297.763 23.6757 301.768 22.354 306.892 22.354C310.512 22.354 313.277 23.0657 315.188 24.489C317.1 25.8717 318.055 27.6203 318.055 29.735C318.055 31.8497 317.588 33.395 316.652 34.371C315.758 35.347 314.497 35.835 312.87 35.835C311.284 35.835 310.003 35.408 309.027 34.554C308.051 33.7 307.563 32.4393 307.563 30.772C307.563 30.04 307.665 29.308 307.868 28.576H309.881C310.166 27.7627 310.308 27.0307 310.308 26.38C310.308 24.428 309.332 23.452 307.38 23.452ZM322.838 43.277V24.062H319.483V22.964H322.838V15.095L334.184 12.289V22.964H342.114V24.062H334.184V44.619C334.184 46.5303 334.367 47.9333 334.733 48.828C335.139 49.7227 335.953 50.17 337.173 50.17C338.393 50.17 339.45 49.56 340.345 48.34C341.28 47.12 341.89 45.4527 342.175 43.338L343.212 43.46C342.886 46.266 341.992 48.5027 340.528 50.17C339.064 51.7967 336.644 52.61 333.269 52.61C329.893 52.61 327.311 51.939 325.522 50.597C323.732 49.255 322.838 46.815 322.838 43.277Z" fill="#366006"/>
</svg>
