<svg width="102" height="21" viewBox="0 0 102 21" fill="none" xmlns="http://www.w3.org/2000/svg">
<path d="M19.992 9.864C19.992 13.7093 18.9093 16.388 16.744 17.9C14.7467 19.3 12.0027 20 8.512 20H0.588V19.468H2.436V0.931998H0.588V0.399999H9.24C12.824 0.399999 15.512 1.13733 17.304 2.612C19.096 4.068 19.992 6.48533 19.992 9.864ZM7.896 19.468H8.96C10.8453 19.468 12.1893 18.8053 12.992 17.48C13.8133 16.136 14.224 13.896 14.224 10.76V9.136C14.224 4.936 13.4213 2.40667 11.816 1.548C11.0507 1.13733 9.968 0.931998 8.568 0.931998H7.896V19.468ZM28.7807 20.28C26.3727 20.28 24.5621 19.664 23.3487 18.432C22.1541 17.1813 21.5567 15.4547 21.5567 13.252C21.5567 11.0307 22.2287 9.332 23.5727 8.156C24.9354 6.98 26.6621 6.392 28.7527 6.392C32.9901 6.392 35.0247 8.52 34.8567 12.776H26.9607V13.868C26.9607 15.6973 27.1941 17.0787 27.6607 18.012C28.1274 18.9453 28.9394 19.412 30.0967 19.412C32.2621 19.412 33.6807 18.2547 34.3527 15.94L34.8567 16.024C34.5021 17.368 33.8581 18.4133 32.9247 19.16C32.0101 19.9067 30.6287 20.28 28.7807 20.28ZM26.9887 12.216H29.8727V10.844C29.8727 9.332 29.7794 8.30533 29.5927 7.764C29.4247 7.204 29.0701 6.924 28.5287 6.924C28.0061 6.924 27.6141 7.22267 27.3527 7.82C27.1101 8.39867 26.9887 9.40667 26.9887 10.844V12.216ZM34.8633 7.176V6.672H43.2353V7.176H41.4713L44.8313 16.472L47.8553 7.176H45.9793V6.672H49.7593V7.176H48.5273L44.3833 20H41.1913L36.0113 7.176H34.8633ZM60.9656 0.651999C58.0723 0.651999 56.6256 3.44267 56.6256 9.024V11.236C56.6256 13.8867 57.0083 15.968 57.7736 17.48C58.539 18.9733 59.6683 19.72 61.1616 19.72C63.215 19.72 65.1003 17.7227 66.8176 13.728H67.3216L67.1256 19.972H66.8176C66.7056 19.7667 66.603 19.6267 66.5096 19.552C66.4163 19.4587 66.2763 19.412 66.0896 19.412C65.9216 19.412 65.2496 19.5613 64.0736 19.86C62.8976 20.14 61.703 20.28 60.4896 20.28C57.447 20.28 55.0856 19.4587 53.4056 17.816C51.7443 16.1733 50.9136 13.7093 50.9136 10.424C50.9136 7.12 51.7816 4.572 53.5176 2.78C55.2723 0.987999 57.6243 0.0919993 60.5736 0.0919993C61.7123 0.0919993 62.823 0.241332 63.9056 0.539999C65.007 0.819999 65.651 0.96 65.8376 0.96C66.0243 0.96 66.1643 0.922666 66.2576 0.848C66.351 0.754666 66.4536 0.605333 66.5656 0.399999H66.8736L67.0976 6.476H66.5936C65.7536 4.59067 64.8856 3.15333 63.9896 2.164C63.1123 1.156 62.1043 0.651999 60.9656 0.651999ZM78.1482 14.484V12.104C78.1482 10.2933 78.0456 8.97733 77.8402 8.156C77.6536 7.316 77.2056 6.896 76.4962 6.896C76.0856 6.896 75.7496 7.01733 75.4882 7.26C75.2456 7.484 75.0682 7.86667 74.9562 8.408C74.7882 9.248 74.7042 10.5267 74.7042 12.244V14.428C74.7042 16.4627 74.7602 17.6853 74.8722 18.096C75.0029 18.5067 75.1336 18.8427 75.2642 19.104C75.4696 19.552 75.8709 19.776 76.4682 19.776C77.1962 19.776 77.6722 19.356 77.8962 18.516C78.0642 17.9187 78.1482 16.5747 78.1482 14.484ZM76.4122 20.28C74.0789 20.28 72.3149 19.6827 71.1202 18.488C69.9256 17.2933 69.3282 15.5853 69.3282 13.364C69.3282 11.124 69.9629 9.40667 71.2322 8.212C72.5202 6.99867 74.3216 6.392 76.6362 6.392C78.9509 6.392 80.6776 6.952 81.8162 8.072C82.9549 9.17333 83.5242 10.8627 83.5242 13.14C83.5242 17.9 81.1536 20.28 76.4122 20.28ZM84.3633 6.672H91.1113V9.248C91.41 8.38933 91.8673 7.69867 92.4833 7.176C93.0993 6.65333 94.0327 6.392 95.2833 6.392C98.1767 6.392 99.6233 7.95067 99.6233 11.068V19.496H101.191V20H93.2673V19.496H94.4153V10.396C94.4153 9.276 94.3407 8.55733 94.1913 8.24C94.042 7.904 93.7713 7.736 93.3793 7.736C92.782 7.736 92.25 8.128 91.7833 8.912C91.3353 9.696 91.1113 10.648 91.1113 11.768V19.496H92.3153V20H84.3633V19.496H85.9033V7.176H84.3633V6.672Z" fill="#366006"/>
</svg>
