<svg width="43" height="43" viewBox="0 0 43 43" fill="none" xmlns="http://www.w3.org/2000/svg">
<path d="M2.6875 34.9375H5.375V22.8438L4.98195 23.2368C4.72937 23.4889 4.38696 23.6304 4.03006 23.6301C3.67316 23.6298 3.33101 23.4877 3.07887 23.2351C2.82673 22.9825 2.68525 22.6401 2.68557 22.2832C2.68588 21.9263 2.82796 21.5842 3.08055 21.332L19.6003 4.81735C20.1042 4.31373 20.7875 4.03082 21.5 4.03082C22.2125 4.03082 22.8958 4.31373 23.3997 4.81735L39.9195 21.332C40.1714 21.5842 40.3128 21.9261 40.3127 22.2825C40.3125 22.6389 40.1708 22.9807 39.9186 23.2326C39.6665 23.4845 39.3246 23.626 38.9682 23.6258C38.6117 23.6256 38.27 23.4839 38.018 23.2318L37.625 22.8438V34.9375H40.3125C40.6689 34.9375 41.0107 35.0791 41.2627 35.3311C41.5147 35.5831 41.6562 35.9249 41.6562 36.2813C41.6562 36.6376 41.5147 36.9794 41.2627 37.2314C41.0107 37.4834 40.6689 37.625 40.3125 37.625H2.6875C2.33112 37.625 1.98933 37.4834 1.73732 37.2314C1.48532 36.9794 1.34375 36.6376 1.34375 36.2813C1.34375 35.9249 1.48532 35.5831 1.73732 35.3311C1.98933 35.0791 2.33112 34.9375 2.6875 34.9375ZM34.9375 20.1563L21.5 6.71876L8.0625 20.1563V34.9375H16.125V25.5313C16.125 25.1749 16.2666 24.8331 16.5186 24.5811C16.7706 24.3291 17.1124 24.1875 17.4688 24.1875H25.5312C25.8876 24.1875 26.2294 24.3291 26.4814 24.5811C26.7334 24.8331 26.875 25.1749 26.875 25.5313V34.9375H34.9375V20.1563ZM18.8125 34.9375H24.1875V26.875H18.8125V34.9375Z" fill="#366006"/>
</svg>
