<svg width="60" height="60" viewBox="0 0 60 60" fill="none" xmlns="http://www.w3.org/2000/svg">
<path d="M14.09 28.02L30 43.93L45.91 28.02C47.3167 26.6134 48.1069 24.7055 48.1069 22.7162C48.1069 20.727 47.3167 18.8191 45.91 17.4125C45.2135 16.716 44.3867 16.1635 43.4767 15.7866C42.5666 15.4096 41.5913 15.2156 40.6063 15.2156C38.617 15.2156 36.7092 16.0059 35.3025 17.4125L30 22.715L24.6975 17.415C23.2873 16.0272 21.3858 15.2529 19.4073 15.2607C17.4288 15.2686 15.5335 16.0579 14.1343 17.4568C12.7351 18.8556 11.9453 20.7507 11.937 22.7293C11.9287 24.7078 12.7026 26.6094 14.09 28.02ZM28.2325 13.875L30 15.6425L31.7675 13.875C32.9264 12.7059 34.3048 11.7773 35.8235 11.1423C37.3423 10.5074 38.9715 10.1787 40.6176 10.1751C42.2637 10.1715 43.8944 10.493 45.4159 11.1213C46.9374 11.7496 48.3198 12.6722 49.4838 13.8362C50.6478 15.0002 51.5704 16.3826 52.1987 17.9041C52.827 19.4257 53.1486 21.0563 53.145 22.7024C53.1414 24.3485 52.8126 25.9777 52.1777 27.4965C51.5428 29.0152 50.6141 30.3936 49.445 31.5525L31.77 49.23C31.5378 49.4624 31.2621 49.6468 30.9586 49.7726C30.6551 49.8985 30.3298 49.9632 30.0013 49.9632C29.6727 49.9632 29.3474 49.8985 29.0439 49.7726C28.7404 49.6468 28.4647 49.4624 28.2325 49.23L10.555 31.555C9.37006 30.3998 8.42625 29.0209 7.77836 27.4981C7.13046 25.9754 6.79138 24.3392 6.78077 22.6843C6.77017 21.0295 7.08826 19.3891 7.71659 17.8581C8.34492 16.3272 9.27098 14.9363 10.4411 13.766C11.6111 12.5958 13.0019 11.6695 14.5328 11.041C16.0636 10.4124 17.704 10.0941 19.3588 10.1045C21.0137 10.1149 22.6499 10.4537 24.1728 11.1014C25.6956 11.7491 27.0747 12.6927 28.23 13.8775L28.2325 13.875Z" fill="#B0CA87"/>
</svg>
